# xmcd CD database file
#
# Track frame offsets:
#	150
#	21111
#	37092
#	55231
#	76361
#	93214
#	111932
#	133704
#	154166
#	170710
#	187792
#	206735
#
# Disc length: 2985 seconds
#
# Revision: 0
# Processed by: cddbd v1.5.2PL0 Copyright (c) Steve Scherf et al.
# Submitted via: CDex 1.70beta2
#
DISCID=9e0ba70c
DTITLE=Kat - The Kat Is Back In Town
DYEAR=2013
DGENRE=Blues
TTITLE0=I`m The Kat
TTITLE1=I`m A Woman
TTITLE2=The Trains
TTITLE3=Never Felt No Blues
TTITLE4=Nothing Like The Blues
TTITLE5=A Woman Does
TTITLE6=Licorice and Whiskey
TTITLE7=Love On The Run
TTITLE8=Lipstick and Tears
TTITLE9=Not That Kind Of Girl
TTITLE10=Catfish
TTITLE11=The Golden Key
EXTD=YEAR: 2013
EXTT0=
EXTT1=
EXTT2=
EXTT3=
EXTT4=
EXTT5=
EXTT6=
EXTT7=
EXTT8=
EXTT9=
EXTT10=
EXTT11=
PLAYORDER=
